M48
; DRILL file {KiCad 8.0.1} date 2024-12-14T14:03:44-0600
; FORMAT={-:-/ absolute / metric / decimal}
; #@! TF.CreationDate,2024-12-14T14:03:44-06:00
; #@! TF.GenerationSoftware,Kicad,Pcbnew,8.0.1
; #@! TF.FileFunction,Plated,1,2,PTH
FMAT,2
METRIC
; #@! TA.AperFunction,Plated,PTH,ViaDrill
T1C0.300
; #@! TA.AperFunction,Plated,PTH,ComponentDrill
T2C0.600
; #@! TA.AperFunction,Plated,PTH,ComponentDrill
T3C0.900
; #@! TA.AperFunction,Plated,PTH,ComponentDrill
T4C1.000
%
G90
G05
T1
X134.361Y-103.211
X134.387Y-104.247
X134.987Y-108.182
X136.67Y-108.51
X137.01Y-109.529
X137.921Y-111.172
X138.228Y-100.779
X140.935Y-111.15
X141.197Y-99.3
X142.672Y-113.89
X142.902Y-99.108
X144.74Y-105.67
T3
X135.87Y-93.35
X143.37Y-93.35
T4
X145.08Y-111.86
X145.08Y-114.4
X145.08Y-116.94
T2
G00X133.27Y-112.23
M15
G01X133.27Y-112.83
M16
G05
G00X133.27Y-116.03
M15
G01X133.27Y-116.63
M16
G05
G00X141.91Y-112.23
M15
G01X141.91Y-112.83
M16
G05
G00X141.91Y-116.03
M15
G01X141.91Y-116.63
M16
G05
M30
