G04 #@! TF.GenerationSoftware,KiCad,Pcbnew,8.0.1*
G04 #@! TF.CreationDate,2024-12-14T14:03:44-06:00*
G04 #@! TF.ProjectId,SD_ProtoBoard,53445f50-726f-4746-9f42-6f6172642e6b,rev?*
G04 #@! TF.SameCoordinates,Original*
G04 #@! TF.FileFunction,AssemblyDrawing,Bot*
%FSLAX46Y46*%
G04 Gerber Fmt 4.6, Leading zero omitted, Abs format (unit mm)*
G04 Created by KiCad (PCBNEW 8.0.1) date 2024-12-14 14:03:44*
%MOMM*%
%LPD*%
G01*
G04 APERTURE LIST*
%ADD10C,0.254000*%
%ADD11C,0.100000*%
%ADD12C,0.200000*%
G04 APERTURE END LIST*
D10*
X146133842Y-97332380D02*
X146194318Y-97513809D01*
X146194318Y-97513809D02*
X146194318Y-97816190D01*
X146194318Y-97816190D02*
X146133842Y-97937142D01*
X146133842Y-97937142D02*
X146073365Y-97997618D01*
X146073365Y-97997618D02*
X145952413Y-98058095D01*
X145952413Y-98058095D02*
X145831461Y-98058095D01*
X145831461Y-98058095D02*
X145710508Y-97997618D01*
X145710508Y-97997618D02*
X145650032Y-97937142D01*
X145650032Y-97937142D02*
X145589556Y-97816190D01*
X145589556Y-97816190D02*
X145529080Y-97574285D01*
X145529080Y-97574285D02*
X145468603Y-97453333D01*
X145468603Y-97453333D02*
X145408127Y-97392856D01*
X145408127Y-97392856D02*
X145287175Y-97332380D01*
X145287175Y-97332380D02*
X145166222Y-97332380D01*
X145166222Y-97332380D02*
X145045270Y-97392856D01*
X145045270Y-97392856D02*
X144984794Y-97453333D01*
X144984794Y-97453333D02*
X144924318Y-97574285D01*
X144924318Y-97574285D02*
X144924318Y-97876666D01*
X144924318Y-97876666D02*
X144984794Y-98058095D01*
X146194318Y-99267619D02*
X146194318Y-98541904D01*
X146194318Y-98904761D02*
X144924318Y-98904761D01*
X144924318Y-98904761D02*
X145105746Y-98783809D01*
X145105746Y-98783809D02*
X145226699Y-98662857D01*
X145226699Y-98662857D02*
X145287175Y-98541904D01*
X139433332Y-97589318D02*
X139433332Y-98496461D01*
X139433332Y-98496461D02*
X139493809Y-98677889D01*
X139493809Y-98677889D02*
X139614761Y-98798842D01*
X139614761Y-98798842D02*
X139796190Y-98859318D01*
X139796190Y-98859318D02*
X139917142Y-98859318D01*
X138284285Y-98012651D02*
X138284285Y-98859318D01*
X138586666Y-97528842D02*
X138889047Y-98435984D01*
X138889047Y-98435984D02*
X138102856Y-98435984D01*
D11*
G04 #@! TO.C,S1*
X146870000Y-100650000D02*
X143370000Y-100650000D01*
X143370000Y-100650000D02*
X143370000Y-95950000D01*
X146870000Y-95950000D02*
X146870000Y-100650000D01*
X147870000Y-97000000D02*
X146870000Y-97000000D01*
X143370000Y-95950000D02*
X146870000Y-95950000D01*
X146870000Y-99600000D02*
X147870000Y-99600000D01*
X147870000Y-99600000D02*
X147870000Y-97000000D01*
D12*
G04 #@! TO.C,J4*
X135060000Y-95010000D02*
X135060000Y-102610000D01*
X142960000Y-95010000D02*
X135060000Y-95010000D01*
X135060000Y-102610000D02*
X142960000Y-102610000D01*
X142960000Y-102610000D02*
X142960000Y-95010000D01*
G04 #@! TD*
M02*
