G04 #@! TF.GenerationSoftware,KiCad,Pcbnew,8.0.1*
G04 #@! TF.CreationDate,2024-12-14T14:03:44-06:00*
G04 #@! TF.ProjectId,SD_ProtoBoard,53445f50-726f-4746-9f42-6f6172642e6b,rev?*
G04 #@! TF.SameCoordinates,Original*
G04 #@! TF.FileFunction,Copper,L2,Bot*
G04 #@! TF.FilePolarity,Positive*
%FSLAX46Y46*%
G04 Gerber Fmt 4.6, Leading zero omitted, Abs format (unit mm)*
G04 Created by KiCad (PCBNEW 8.0.1) date 2024-12-14 14:03:44*
%MOMM*%
%LPD*%
G01*
G04 APERTURE LIST*
G04 #@! TA.AperFunction,ComponentPad*
%ADD10C,2.500000*%
G04 #@! TD*
G04 #@! TA.AperFunction,ComponentPad*
%ADD11O,1.100000X1.700000*%
G04 #@! TD*
G04 #@! TA.AperFunction,ComponentPad*
%ADD12R,1.700000X1.700000*%
G04 #@! TD*
G04 #@! TA.AperFunction,ComponentPad*
%ADD13O,1.700000X1.700000*%
G04 #@! TD*
G04 #@! TA.AperFunction,SMDPad,CuDef*
%ADD14R,1.000000X1.200000*%
G04 #@! TD*
G04 #@! TA.AperFunction,SMDPad,CuDef*
%ADD15R,1.000000X3.500000*%
G04 #@! TD*
G04 #@! TA.AperFunction,SMDPad,CuDef*
%ADD16R,1.500000X3.400000*%
G04 #@! TD*
G04 #@! TA.AperFunction,ViaPad*
%ADD17C,0.600000*%
G04 #@! TD*
G04 #@! TA.AperFunction,Conductor*
%ADD18C,0.200000*%
G04 #@! TD*
G04 APERTURE END LIST*
D10*
G04 #@! TO.P,X1,1*
G04 #@! TO.N,Net-(IC2-OUTP)*
X135870000Y-93350000D03*
G04 #@! TO.P,X1,2*
G04 #@! TO.N,Net-(IC2-OUTN)*
X143370000Y-93350000D03*
G04 #@! TD*
D11*
G04 #@! TO.P,J3,S1,SHIELD*
G04 #@! TO.N,unconnected-(J3-SHIELD-PadS1)_0*
X133270000Y-112530000D03*
G04 #@! TO.N,unconnected-(J3-SHIELD-PadS1)_2*
X133270000Y-116330000D03*
G04 #@! TO.N,unconnected-(J3-SHIELD-PadS1)_1*
X141910000Y-112530000D03*
G04 #@! TO.N,unconnected-(J3-SHIELD-PadS1)*
X141910000Y-116330000D03*
G04 #@! TD*
D12*
G04 #@! TO.P,J1,1,Pin_1*
G04 #@! TO.N,/VBAT*
X145080000Y-116940000D03*
D13*
G04 #@! TO.P,J1,2,Pin_2*
G04 #@! TO.N,GND*
X145080000Y-114400000D03*
G04 #@! TO.P,J1,3,Pin_3*
G04 #@! TO.N,/UPDI*
X145080000Y-111860000D03*
G04 #@! TD*
D14*
G04 #@! TO.P,S1,4,NO_2*
G04 #@! TO.N,unconnected-(S1-NO_2-Pad4)*
X145970000Y-95500000D03*
G04 #@! TO.P,S1,3,COM_2*
G04 #@! TO.N,unconnected-(S1-COM_2-Pad3)*
X144270000Y-95500000D03*
G04 #@! TO.P,S1,2,NO_1*
G04 #@! TO.N,Net-(IC1-PA2)*
X145970000Y-101100000D03*
G04 #@! TO.P,S1,1,COM_1*
G04 #@! TO.N,GND*
X144270000Y-101100000D03*
G04 #@! TD*
D15*
G04 #@! TO.P,J4,1,1*
G04 #@! TO.N,GND*
X140010000Y-95560000D03*
G04 #@! TO.P,J4,2,2*
G04 #@! TO.N,/VBAT*
X138010000Y-95560000D03*
D16*
G04 #@! TO.P,J4,MP1,MP1*
G04 #@! TO.N,unconnected-(J4-PadMP1)*
X142360000Y-101310000D03*
G04 #@! TO.P,J4,MP2,MP2*
G04 #@! TO.N,unconnected-(J4-PadMP2)*
X135660000Y-101310000D03*
G04 #@! TD*
D17*
G04 #@! TO.N,/UPDI*
X136670000Y-108510000D03*
G04 #@! TO.N,Net-(J3-CC1)*
X137921300Y-111172100D03*
X140934600Y-111149800D03*
G04 #@! TO.N,/VBAT*
X134387400Y-104246800D03*
G04 #@! TO.N,Net-(IC2-OUTN)*
X144740000Y-105670000D03*
G04 #@! TO.N,Net-(IC1-PA7)*
X134987400Y-108182150D03*
X141196800Y-99299800D03*
G04 #@! TO.N,Net-(IC1-PA2)*
X137010000Y-109528900D03*
G04 #@! TO.N,GND*
X142901600Y-99107600D03*
X142671800Y-113890200D03*
X138228200Y-100779200D03*
X134360500Y-103211200D03*
G04 #@! TD*
D18*
G04 #@! TO.N,Net-(IC2-OUTN)*
X144740000Y-105670000D02*
X145168300Y-105241700D01*
X145168300Y-105241700D02*
X145168300Y-94829500D01*
X145168300Y-94829500D02*
X143688800Y-93350000D01*
X143688800Y-93350000D02*
X143370000Y-93350000D01*
G04 #@! TO.N,Net-(IC1-PA2)*
X137010000Y-109528900D02*
X141853100Y-109528900D01*
X145970000Y-102001700D02*
X145970000Y-101100000D01*
X141853100Y-109528900D02*
X146056200Y-105325800D01*
X146056200Y-105325800D02*
X146056200Y-102087900D01*
X146056200Y-102087900D02*
X145970000Y-102001700D01*
G04 #@! TO.N,/UPDI*
X136410000Y-108770000D02*
X136410000Y-109999014D01*
X142601100Y-110532800D02*
X143928300Y-111860000D01*
X136670000Y-108510000D02*
X136410000Y-108770000D01*
X136410000Y-109999014D02*
X136943786Y-110532800D01*
X136943786Y-110532800D02*
X142601100Y-110532800D01*
X143928300Y-111860000D02*
X145080000Y-111860000D01*
G04 #@! TO.N,Net-(IC1-PA7)*
X134987400Y-108182150D02*
X134987400Y-105933500D01*
X134987400Y-105933500D02*
X141196800Y-99724100D01*
X141196800Y-99724100D02*
X141196800Y-99299800D01*
G04 #@! TO.N,Net-(J3-CC1)*
X140912300Y-111172100D02*
X140934600Y-111149800D01*
X137921300Y-111172100D02*
X140912300Y-111172100D01*
G04 #@! TO.N,/VBAT*
X145080000Y-116940000D02*
X143928300Y-116940000D01*
X133752600Y-103612000D02*
X134387400Y-104246800D01*
X133752600Y-100325900D02*
X133752600Y-103612000D01*
X136466800Y-97611700D02*
X133752600Y-100325900D01*
X138010000Y-97611700D02*
X136466800Y-97611700D01*
X138010000Y-95560000D02*
X138010000Y-97611700D01*
X143928300Y-116829200D02*
X143928300Y-116940000D01*
X141900800Y-114801700D02*
X143928300Y-116829200D01*
X140647000Y-114801700D02*
X141900800Y-114801700D01*
X134387400Y-108542100D02*
X140647000Y-114801700D01*
X134387400Y-104246800D02*
X134387400Y-108542100D01*
G04 #@! TO.N,GND*
X144270000Y-101100000D02*
X144270000Y-100198300D01*
X143179300Y-99107600D02*
X142901600Y-99107600D01*
X144270000Y-100198300D02*
X143179300Y-99107600D01*
X140010000Y-95560000D02*
X140010000Y-97611700D01*
X143418500Y-113890200D02*
X143928300Y-114400000D01*
X142671800Y-113890200D02*
X143418500Y-113890200D01*
X145080000Y-114400000D02*
X143928300Y-114400000D01*
X138228200Y-101648400D02*
X138228200Y-100779200D01*
X136549400Y-103327200D02*
X138228200Y-101648400D01*
X134476500Y-103327200D02*
X136549400Y-103327200D01*
X134360500Y-103211200D02*
X134476500Y-103327200D01*
X141405700Y-97611700D02*
X140010000Y-97611700D01*
X142901600Y-99107600D02*
X141405700Y-97611700D01*
X140010000Y-98997400D02*
X138228200Y-100779200D01*
X140010000Y-97611700D02*
X140010000Y-98997400D01*
G04 #@! TD*
M02*
