G04 #@! TF.GenerationSoftware,KiCad,Pcbnew,8.0.1*
G04 #@! TF.CreationDate,2024-12-14T14:03:44-06:00*
G04 #@! TF.ProjectId,SD_ProtoBoard,53445f50-726f-4746-9f42-6f6172642e6b,rev?*
G04 #@! TF.SameCoordinates,Original*
G04 #@! TF.FileFunction,Copper,L1,Top*
G04 #@! TF.FilePolarity,Positive*
%FSLAX46Y46*%
G04 Gerber Fmt 4.6, Leading zero omitted, Abs format (unit mm)*
G04 Created by KiCad (PCBNEW 8.0.1) date 2024-12-14 14:03:44*
%MOMM*%
%LPD*%
G01*
G04 APERTURE LIST*
G04 Aperture macros list*
%AMRoundRect*
0 Rectangle with rounded corners*
0 $1 Rounding radius*
0 $2 $3 $4 $5 $6 $7 $8 $9 X,Y pos of 4 corners*
0 Add a 4 corners polygon primitive as box body*
4,1,4,$2,$3,$4,$5,$6,$7,$8,$9,$2,$3,0*
0 Add four circle primitives for the rounded corners*
1,1,$1+$1,$2,$3*
1,1,$1+$1,$4,$5*
1,1,$1+$1,$6,$7*
1,1,$1+$1,$8,$9*
0 Add four rect primitives between the rounded corners*
20,1,$1+$1,$2,$3,$4,$5,0*
20,1,$1+$1,$4,$5,$6,$7,0*
20,1,$1+$1,$6,$7,$8,$9,0*
20,1,$1+$1,$8,$9,$2,$3,0*%
G04 Aperture macros list end*
G04 #@! TA.AperFunction,SMDPad,CuDef*
%ADD10R,1.400000X0.600000*%
G04 #@! TD*
G04 #@! TA.AperFunction,ComponentPad*
%ADD11C,2.500000*%
G04 #@! TD*
G04 #@! TA.AperFunction,SMDPad,CuDef*
%ADD12R,1.400000X0.300000*%
G04 #@! TD*
G04 #@! TA.AperFunction,SMDPad,CuDef*
%ADD13RoundRect,0.375000X0.375000X-0.625000X0.375000X0.625000X-0.375000X0.625000X-0.375000X-0.625000X0*%
G04 #@! TD*
G04 #@! TA.AperFunction,SMDPad,CuDef*
%ADD14R,0.750000X0.600000*%
G04 #@! TD*
G04 #@! TA.AperFunction,SMDPad,CuDef*
%ADD15R,0.600000X0.620000*%
G04 #@! TD*
G04 #@! TA.AperFunction,SMDPad,CuDef*
%ADD16RoundRect,0.175000X-0.175000X-0.425000X0.175000X-0.425000X0.175000X0.425000X-0.175000X0.425000X0*%
G04 #@! TD*
G04 #@! TA.AperFunction,SMDPad,CuDef*
%ADD17RoundRect,0.190000X0.190000X0.410000X-0.190000X0.410000X-0.190000X-0.410000X0.190000X-0.410000X0*%
G04 #@! TD*
G04 #@! TA.AperFunction,SMDPad,CuDef*
%ADD18RoundRect,0.200000X0.200000X0.400000X-0.200000X0.400000X-0.200000X-0.400000X0.200000X-0.400000X0*%
G04 #@! TD*
G04 #@! TA.AperFunction,SMDPad,CuDef*
%ADD19RoundRect,0.175000X0.175000X0.425000X-0.175000X0.425000X-0.175000X-0.425000X0.175000X-0.425000X0*%
G04 #@! TD*
G04 #@! TA.AperFunction,SMDPad,CuDef*
%ADD20RoundRect,0.190000X-0.190000X-0.410000X0.190000X-0.410000X0.190000X0.410000X-0.190000X0.410000X0*%
G04 #@! TD*
G04 #@! TA.AperFunction,SMDPad,CuDef*
%ADD21RoundRect,0.200000X-0.200000X-0.400000X0.200000X-0.400000X0.200000X0.400000X-0.200000X0.400000X0*%
G04 #@! TD*
G04 #@! TA.AperFunction,ComponentPad*
%ADD22O,1.100000X1.700000*%
G04 #@! TD*
G04 #@! TA.AperFunction,ComponentPad*
%ADD23R,1.700000X1.700000*%
G04 #@! TD*
G04 #@! TA.AperFunction,ComponentPad*
%ADD24O,1.700000X1.700000*%
G04 #@! TD*
G04 #@! TA.AperFunction,SMDPad,CuDef*
%ADD25R,0.950000X0.950000*%
G04 #@! TD*
G04 #@! TA.AperFunction,SMDPad,CuDef*
%ADD26R,1.150000X1.850000*%
G04 #@! TD*
G04 #@! TA.AperFunction,SMDPad,CuDef*
%ADD27R,0.940000X0.750000*%
G04 #@! TD*
G04 #@! TA.AperFunction,SMDPad,CuDef*
%ADD28R,0.750000X0.940000*%
G04 #@! TD*
G04 #@! TA.AperFunction,SMDPad,CuDef*
%ADD29R,0.560000X0.620000*%
G04 #@! TD*
G04 #@! TA.AperFunction,SMDPad,CuDef*
%ADD30R,1.500000X0.650000*%
G04 #@! TD*
G04 #@! TA.AperFunction,SMDPad,CuDef*
%ADD31R,0.600000X0.750000*%
G04 #@! TD*
G04 #@! TA.AperFunction,ViaPad*
%ADD32C,0.600000*%
G04 #@! TD*
G04 #@! TA.AperFunction,Conductor*
%ADD33C,0.200000*%
G04 #@! TD*
G04 APERTURE END LIST*
D10*
G04 #@! TO.P,IC3,1,STAT*
G04 #@! TO.N,Net-(IC3-STAT)*
X133150000Y-102470000D03*
G04 #@! TO.P,IC3,2,VSS*
G04 #@! TO.N,GND*
X133150000Y-103420000D03*
G04 #@! TO.P,IC3,3,VBAT*
G04 #@! TO.N,/VBAT*
X133150000Y-104370000D03*
G04 #@! TO.P,IC3,4,VDD*
G04 #@! TO.N,Net-(IC3-VDD)*
X135650000Y-104370000D03*
G04 #@! TO.P,IC3,5,PROG*
G04 #@! TO.N,Net-(IC3-PROG)*
X135650000Y-102470000D03*
G04 #@! TD*
D11*
G04 #@! TO.P,X1,1*
G04 #@! TO.N,Net-(IC2-OUTP)*
X135870000Y-93350000D03*
G04 #@! TO.P,X1,2*
G04 #@! TO.N,Net-(IC2-OUTN)*
X143370000Y-93350000D03*
G04 #@! TD*
D12*
G04 #@! TO.P,IC2,1,VCC*
G04 #@! TO.N,Net-(IC2-VCC)*
X141680000Y-102470000D03*
G04 #@! TO.P,IC2,2,GND*
G04 #@! TO.N,GND*
X141680000Y-102970000D03*
G04 #@! TO.P,IC2,3,BOOT*
G04 #@! TO.N,Net-(IC2-BOOT)*
X141680000Y-103470000D03*
G04 #@! TO.P,IC2,4,SW*
G04 #@! TO.N,Net-(IC2-SW)*
X141680000Y-103970000D03*
G04 #@! TO.P,IC2,5,VOUT*
G04 #@! TO.N,Net-(IC2-FB)*
X141680000Y-104470000D03*
G04 #@! TO.P,IC2,6,OUTN*
G04 #@! TO.N,Net-(IC2-OUTN)*
X146080000Y-104470000D03*
G04 #@! TO.P,IC2,7,OUTP*
G04 #@! TO.N,Net-(IC2-OUTP)*
X146080000Y-103970000D03*
G04 #@! TO.P,IC2,8,FB*
G04 #@! TO.N,Net-(IC2-FB)*
X146080000Y-103470000D03*
G04 #@! TO.P,IC2,9,DIN*
G04 #@! TO.N,Net-(IC1-PA7)*
X146080000Y-102970000D03*
G04 #@! TO.P,IC2,10,VIN*
G04 #@! TO.N,/VBAT*
X146080000Y-102470000D03*
D13*
G04 #@! TO.P,IC2,11,GND_PAD*
G04 #@! TO.N,GND*
X143880000Y-103470000D03*
G04 #@! TD*
D14*
G04 #@! TO.P,R3,1,1*
G04 #@! TO.N,GND*
X140480000Y-108930000D03*
G04 #@! TO.P,R3,2,2*
G04 #@! TO.N,Net-(J3-CC2)*
X141580000Y-108930000D03*
G04 #@! TD*
D15*
G04 #@! TO.P,C4,1,1*
G04 #@! TO.N,/VBAT*
X145690000Y-99470000D03*
G04 #@! TO.P,C4,2,2*
G04 #@! TO.N,GND*
X144770000Y-99470000D03*
G04 #@! TD*
G04 #@! TO.P,C2,1,1*
G04 #@! TO.N,GND*
X142980000Y-106070000D03*
G04 #@! TO.P,C2,2,2*
G04 #@! TO.N,Net-(IC2-FB)*
X142060000Y-106070000D03*
G04 #@! TD*
D16*
G04 #@! TO.P,J3,A5,CC1*
G04 #@! TO.N,Net-(J3-CC1)*
X137090000Y-112450000D03*
D17*
G04 #@! TO.P,J3,A9,VBUS*
G04 #@! TO.N,Net-(IC3-VDD)*
X139110000Y-112450000D03*
D18*
G04 #@! TO.P,J3,A12,GND*
G04 #@! TO.N,GND*
X140340000Y-112450000D03*
D19*
G04 #@! TO.P,J3,B5,CC2*
G04 #@! TO.N,Net-(J3-CC2)*
X138090000Y-112450000D03*
D20*
G04 #@! TO.P,J3,B9,VBUS*
G04 #@! TO.N,Net-(IC3-VDD)*
X136070000Y-112450000D03*
D21*
G04 #@! TO.P,J3,B12,GND*
G04 #@! TO.N,GND*
X134840000Y-112450000D03*
D22*
G04 #@! TO.P,J3,S1,SHIELD*
G04 #@! TO.N,unconnected-(J3-SHIELD-PadS1)_0*
X133270000Y-112530000D03*
G04 #@! TO.N,unconnected-(J3-SHIELD-PadS1)_2*
X133270000Y-116330000D03*
G04 #@! TO.N,unconnected-(J3-SHIELD-PadS1)_1*
X141910000Y-112530000D03*
G04 #@! TO.N,unconnected-(J3-SHIELD-PadS1)*
X141910000Y-116330000D03*
G04 #@! TD*
D23*
G04 #@! TO.P,J1,1,Pin_1*
G04 #@! TO.N,/VBAT*
X145080000Y-116940000D03*
D24*
G04 #@! TO.P,J1,2,Pin_2*
G04 #@! TO.N,GND*
X145080000Y-114400000D03*
G04 #@! TO.P,J1,3,Pin_3*
G04 #@! TO.N,/UPDI*
X145080000Y-111860000D03*
G04 #@! TD*
D25*
G04 #@! TO.P,LED1,1,K*
G04 #@! TO.N,Net-(LED1-K)*
X133120000Y-100460000D03*
G04 #@! TO.P,LED1,2,A*
G04 #@! TO.N,GND*
X133120000Y-98960000D03*
G04 #@! TD*
D26*
G04 #@! TO.P,L1,1,1*
G04 #@! TO.N,/VBAT*
X137780000Y-103970000D03*
G04 #@! TO.P,L1,2,2*
G04 #@! TO.N,Net-(IC2-SW)*
X139580000Y-103970000D03*
G04 #@! TD*
D27*
G04 #@! TO.P,C6,1,1*
G04 #@! TO.N,GND*
X140560000Y-107550000D03*
G04 #@! TO.P,C6,2,2*
G04 #@! TO.N,Net-(IC3-VDD)*
X140560000Y-106150000D03*
G04 #@! TD*
D15*
G04 #@! TO.P,C5,1,1*
G04 #@! TO.N,Net-(IC2-VCC)*
X142130000Y-100925000D03*
G04 #@! TO.P,C5,2,2*
G04 #@! TO.N,GND*
X143050000Y-100925000D03*
G04 #@! TD*
D28*
G04 #@! TO.P,C7,1,1*
G04 #@! TO.N,/VBAT*
X143280000Y-107480000D03*
G04 #@! TO.P,C7,2,2*
G04 #@! TO.N,GND*
X141880000Y-107480000D03*
G04 #@! TD*
D14*
G04 #@! TO.P,R1,1,1*
G04 #@! TO.N,GND*
X140480000Y-110270000D03*
G04 #@! TO.P,R1,2,2*
G04 #@! TO.N,Net-(J3-CC1)*
X141580000Y-110270000D03*
G04 #@! TD*
G04 #@! TO.P,R2,1,1*
G04 #@! TO.N,Net-(LED1-K)*
X134860000Y-100790000D03*
G04 #@! TO.P,R2,2,2*
G04 #@! TO.N,Net-(IC3-STAT)*
X135960000Y-100790000D03*
G04 #@! TD*
D29*
G04 #@! TO.P,C1,1,1*
G04 #@! TO.N,Net-(IC2-SW)*
X138920000Y-101970000D03*
G04 #@! TO.P,C1,2,2*
G04 #@! TO.N,Net-(IC2-BOOT)*
X139880000Y-101970000D03*
G04 #@! TD*
D28*
G04 #@! TO.P,C3,1,1*
G04 #@! TO.N,/VBAT*
X146230000Y-100770000D03*
G04 #@! TO.P,C3,2,2*
G04 #@! TO.N,GND*
X144830000Y-100770000D03*
G04 #@! TD*
D30*
G04 #@! TO.P,IC1,8,GND*
G04 #@! TO.N,GND*
X138620000Y-106300000D03*
G04 #@! TO.P,IC1,7,PA3/EXTCLK*
G04 #@! TO.N,unconnected-(IC1-PA3{slash}EXTCLK-Pad7)*
X138620000Y-107570000D03*
G04 #@! TO.P,IC1,6,PA0/~{RESET}/UPDI*
G04 #@! TO.N,/UPDI*
X138620000Y-108840000D03*
G04 #@! TO.P,IC1,5,PA2*
G04 #@! TO.N,Net-(IC1-PA2)*
X138620000Y-110110000D03*
G04 #@! TO.P,IC1,4,PA1*
G04 #@! TO.N,unconnected-(IC1-PA1-Pad4)*
X133220000Y-110110000D03*
G04 #@! TO.P,IC1,3,PA7*
G04 #@! TO.N,Net-(IC1-PA7)*
X133220000Y-108840000D03*
G04 #@! TO.P,IC1,2,PA6*
G04 #@! TO.N,unconnected-(IC1-PA6-Pad2)*
X133220000Y-107570000D03*
G04 #@! TO.P,IC1,1,VDD*
G04 #@! TO.N,/VBAT*
X133220000Y-106300000D03*
G04 #@! TD*
D31*
G04 #@! TO.P,R4,1,1*
G04 #@! TO.N,Net-(IC3-PROG)*
X137390000Y-102070000D03*
G04 #@! TO.P,R4,2,2*
G04 #@! TO.N,GND*
X137390000Y-100970000D03*
G04 #@! TD*
D32*
G04 #@! TO.N,/UPDI*
X136670000Y-108510000D03*
G04 #@! TO.N,Net-(J3-CC1)*
X137921300Y-111172100D03*
X140934600Y-111149800D03*
G04 #@! TO.N,/VBAT*
X134387400Y-104246800D03*
G04 #@! TO.N,Net-(IC2-OUTN)*
X144740000Y-105670000D03*
G04 #@! TO.N,Net-(IC1-PA7)*
X134987400Y-108182150D03*
X141196800Y-99299800D03*
G04 #@! TO.N,Net-(IC1-PA2)*
X137010000Y-109528900D03*
G04 #@! TO.N,GND*
X142901600Y-99107600D03*
X142671800Y-113890200D03*
X138228200Y-100779200D03*
X134360500Y-103211200D03*
G04 #@! TD*
D33*
G04 #@! TO.N,Net-(IC2-OUTN)*
X144740000Y-105670000D02*
X145078300Y-105331700D01*
X145078300Y-105331700D02*
X145078300Y-104470000D01*
X145078300Y-104470000D02*
X146080000Y-104470000D01*
G04 #@! TO.N,Net-(IC1-PA2)*
X137568300Y-110087200D02*
X137568300Y-110110000D01*
X137010000Y-109528900D02*
X137568300Y-110087200D01*
X137568300Y-110110000D02*
X138620000Y-110110000D01*
G04 #@! TO.N,/UPDI*
X137000000Y-108840000D02*
X136670000Y-108510000D01*
X138620000Y-108840000D02*
X137000000Y-108840000D01*
G04 #@! TO.N,Net-(IC1-PA7)*
X134987400Y-108182150D02*
X134929550Y-108182150D01*
X134929550Y-108182150D02*
X134271700Y-108840000D01*
X134271700Y-108840000D02*
X133220000Y-108840000D01*
G04 #@! TO.N,Net-(LED1-K)*
X134183300Y-100746600D02*
X133896700Y-100460000D01*
X134183300Y-100790000D02*
X134183300Y-100746600D01*
X133120000Y-100460000D02*
X133896700Y-100460000D01*
X134860000Y-100790000D02*
X134183300Y-100790000D01*
G04 #@! TO.N,Net-(J3-CC1)*
X137090000Y-112003400D02*
X137921300Y-111172100D01*
X137090000Y-112450000D02*
X137090000Y-112003400D01*
X141580000Y-110270000D02*
X141580000Y-110871700D01*
X141212700Y-110871700D02*
X140934600Y-111149800D01*
X141580000Y-110871700D02*
X141212700Y-110871700D01*
G04 #@! TO.N,Net-(J3-CC2)*
X138090000Y-112173500D02*
X138090000Y-112450000D01*
X139737500Y-110526000D02*
X138090000Y-112173500D01*
X139737500Y-109848800D02*
X139737500Y-110526000D01*
X140054600Y-109531700D02*
X139737500Y-109848800D01*
X141580000Y-109531700D02*
X140054600Y-109531700D01*
X141580000Y-108930000D02*
X141580000Y-109531700D01*
G04 #@! TO.N,Net-(IC3-VDD)*
X139110000Y-112729700D02*
X139110000Y-112450000D01*
X138461100Y-113378600D02*
X139110000Y-112729700D01*
X136733900Y-113378600D02*
X138461100Y-113378600D01*
X136070000Y-112714700D02*
X136733900Y-113378600D01*
X136070000Y-112450000D02*
X136070000Y-112714700D01*
X135650000Y-104370000D02*
X136651700Y-104370000D01*
X140560000Y-106150000D02*
X140560000Y-105473300D01*
X136070000Y-106707000D02*
X136070000Y-112450000D01*
X137303700Y-105473300D02*
X136070000Y-106707000D01*
X137303700Y-105473300D02*
X140560000Y-105473300D01*
X136651700Y-104821300D02*
X137303700Y-105473300D01*
X136651700Y-104370000D02*
X136651700Y-104821300D01*
G04 #@! TO.N,Net-(IC3-PROG)*
X136651700Y-102206600D02*
X136788300Y-102070000D01*
X136651700Y-102470000D02*
X136651700Y-102206600D01*
X137390000Y-102070000D02*
X136788300Y-102070000D01*
X135650000Y-102470000D02*
X136651700Y-102470000D01*
G04 #@! TO.N,Net-(IC3-STAT)*
X135230000Y-101391700D02*
X134151700Y-102470000D01*
X135960000Y-101391700D02*
X135230000Y-101391700D01*
X135960000Y-100790000D02*
X135960000Y-101391700D01*
X133150000Y-102470000D02*
X134151700Y-102470000D01*
G04 #@! TO.N,/VBAT*
X133150000Y-104370000D02*
X134151700Y-104370000D01*
X134271700Y-104370000D02*
X134151700Y-104370000D01*
X134271700Y-106300000D02*
X134271700Y-104370000D01*
X146230000Y-102320000D02*
X146080000Y-102470000D01*
X146230000Y-100770000D02*
X146230000Y-102320000D01*
X146230000Y-100621700D02*
X146230000Y-100770000D01*
X145690000Y-100081700D02*
X146230000Y-100621700D01*
X145690000Y-99775800D02*
X145690000Y-100081700D01*
X133220000Y-106300000D02*
X134170900Y-106300000D01*
X134170900Y-106300000D02*
X134270200Y-106300000D01*
X134270200Y-106300000D02*
X134271700Y-106300000D01*
X143280000Y-114276200D02*
X143280000Y-107480000D01*
X144792100Y-115788300D02*
X143280000Y-114276200D01*
X145080000Y-115788300D02*
X144792100Y-115788300D01*
X145080000Y-116940000D02*
X145080000Y-115788300D01*
X137780000Y-103970000D02*
X136903300Y-103970000D01*
X134271700Y-104362500D02*
X134387400Y-104246800D01*
X134271700Y-104370000D02*
X134271700Y-104362500D01*
X136697000Y-103763700D02*
X136903300Y-103970000D01*
X134818000Y-103763700D02*
X136697000Y-103763700D01*
X134387400Y-104194300D02*
X134818000Y-103763700D01*
X134387400Y-104246800D02*
X134387400Y-104194300D01*
X145690000Y-99775800D02*
X145690000Y-99470000D01*
X138140300Y-103609700D02*
X137780000Y-103970000D01*
X138140300Y-101733000D02*
X138140300Y-103609700D01*
X139423500Y-100449800D02*
X138140300Y-101733000D01*
X139423500Y-99597400D02*
X139423500Y-100449800D01*
X141674300Y-97346600D02*
X139423500Y-99597400D01*
X144178300Y-97346600D02*
X141674300Y-97346600D01*
X145690000Y-98858300D02*
X144178300Y-97346600D01*
X145690000Y-99470000D02*
X145690000Y-98858300D01*
G04 #@! TO.N,Net-(IC1-PA7)*
X146080000Y-102970000D02*
X145078300Y-102970000D01*
X141196800Y-101038600D02*
X141196800Y-99299800D01*
X142128200Y-101970000D02*
X141196800Y-101038600D01*
X144382500Y-101970000D02*
X142128200Y-101970000D01*
X145078300Y-102665800D02*
X144382500Y-101970000D01*
X145078300Y-102970000D02*
X145078300Y-102665800D01*
G04 #@! TO.N,Net-(IC2-VCC)*
X140572000Y-101362000D02*
X141680000Y-102470000D01*
X140572000Y-99063400D02*
X140572000Y-101362000D01*
X140939300Y-98696100D02*
X140572000Y-99063400D01*
X141447600Y-98696100D02*
X140939300Y-98696100D01*
X142130000Y-99378500D02*
X141447600Y-98696100D01*
X142130000Y-100925000D02*
X142130000Y-99378500D01*
G04 #@! TO.N,Net-(IC2-FB)*
X142681700Y-104836600D02*
X142681700Y-104470000D01*
X142060000Y-105458300D02*
X142681700Y-104836600D01*
X141680000Y-104470000D02*
X142681700Y-104470000D01*
X142060000Y-106070000D02*
X142060000Y-105458300D01*
G04 #@! TO.N,Net-(IC2-SW)*
X141680000Y-103970000D02*
X139580000Y-103970000D01*
X139418400Y-102581700D02*
X139580000Y-102743300D01*
X138920000Y-102581700D02*
X139418400Y-102581700D01*
X139580000Y-103970000D02*
X139580000Y-102743300D01*
X138920000Y-101970000D02*
X138920000Y-102581700D01*
G04 #@! TO.N,Net-(IC2-BOOT)*
X140678300Y-102186600D02*
X140461700Y-101970000D01*
X140678300Y-103470000D02*
X140678300Y-102186600D01*
X141680000Y-103470000D02*
X140678300Y-103470000D01*
X139880000Y-101970000D02*
X140461700Y-101970000D01*
G04 #@! TO.N,GND*
X140560000Y-107550000D02*
X140560000Y-108226700D01*
X140480000Y-108306700D02*
X140480000Y-108930000D01*
X140560000Y-108226700D02*
X140480000Y-108306700D01*
X142556700Y-106801700D02*
X142556700Y-107480000D01*
X142876700Y-106481700D02*
X142556700Y-106801700D01*
X133120000Y-98960000D02*
X133896700Y-98960000D01*
X139671700Y-106586700D02*
X139671700Y-106300000D01*
X139958300Y-106873300D02*
X139671700Y-106586700D01*
X140560000Y-106873300D02*
X139958300Y-106873300D01*
X140560000Y-107550000D02*
X140560000Y-106873300D01*
X138620000Y-106300000D02*
X139671700Y-106300000D01*
X142218400Y-107480000D02*
X141880000Y-107480000D01*
X141401700Y-107480000D02*
X141331700Y-107550000D01*
X141880000Y-107480000D02*
X141401700Y-107480000D01*
X140560000Y-107550000D02*
X141331700Y-107550000D01*
X143891200Y-100097200D02*
X142901600Y-99107600D01*
X143891200Y-100384700D02*
X143891200Y-100097200D01*
X135304800Y-98960000D02*
X133896700Y-98960000D01*
X136788300Y-100443500D02*
X135304800Y-98960000D01*
X136788300Y-100970000D02*
X136788300Y-100443500D01*
X134840000Y-112544600D02*
X134840000Y-112450000D01*
X136108000Y-113812600D02*
X134840000Y-112544600D01*
X139078400Y-113812600D02*
X136108000Y-113812600D01*
X140340000Y-112551000D02*
X139078400Y-113812600D01*
X140340000Y-112450000D02*
X140340000Y-112551000D01*
X142671800Y-113890100D02*
X142671800Y-113890200D01*
X141679100Y-113890100D02*
X142671800Y-113890100D01*
X140340000Y-112551000D02*
X141679100Y-113890100D01*
X142218400Y-107480000D02*
X142387600Y-107480000D01*
X142387600Y-107480000D02*
X142556700Y-107480000D01*
X140340000Y-111890500D02*
X140340000Y-112450000D01*
X141045000Y-111890500D02*
X140340000Y-111890500D01*
X141662100Y-111273400D02*
X141045000Y-111890500D01*
X141750600Y-111273400D02*
X141662100Y-111273400D01*
X142387600Y-110636400D02*
X141750600Y-111273400D01*
X142387600Y-107480000D02*
X142387600Y-110636400D01*
X140332800Y-110417200D02*
X140480000Y-110270000D01*
X140332800Y-111883300D02*
X140332800Y-110417200D01*
X140340000Y-111890500D02*
X140332800Y-111883300D01*
X137390000Y-100970000D02*
X137089200Y-100970000D01*
X137089200Y-100970000D02*
X136788300Y-100970000D01*
X133150000Y-103420000D02*
X134151700Y-103420000D01*
X134360500Y-103211200D02*
X134151700Y-103420000D01*
X137280000Y-100779200D02*
X138228200Y-100779200D01*
X137089200Y-100970000D02*
X137280000Y-100779200D01*
G04 #@! TD*
G04 #@! TA.AperFunction,Conductor*
G04 #@! TO.N,GND*
G36*
X144275212Y-102289407D02*
G01*
X144287025Y-102299496D01*
X144748804Y-102761275D01*
X144776581Y-102815792D01*
X144777800Y-102831279D01*
X144777800Y-103009564D01*
X144798278Y-103085988D01*
X144798280Y-103085992D01*
X144837838Y-103154508D01*
X144837840Y-103154511D01*
X144893789Y-103210460D01*
X144893791Y-103210461D01*
X144962307Y-103250019D01*
X144962311Y-103250021D01*
X145038735Y-103270499D01*
X145038737Y-103270500D01*
X145038738Y-103270500D01*
X145077666Y-103270500D01*
X145135857Y-103289407D01*
X145171821Y-103338907D01*
X145176658Y-103370722D01*
X145168003Y-104071722D01*
X145148379Y-104129675D01*
X145098439Y-104165025D01*
X145069011Y-104169500D01*
X145038735Y-104169500D01*
X144962311Y-104189978D01*
X144962307Y-104189980D01*
X144893791Y-104229538D01*
X144837838Y-104285491D01*
X144798280Y-104354007D01*
X144798278Y-104354011D01*
X144777800Y-104430435D01*
X144777800Y-105026000D01*
X144758893Y-105084191D01*
X144709393Y-105120155D01*
X144678800Y-105125000D01*
X143430000Y-105125000D01*
X143419206Y-105740253D01*
X143406706Y-106452737D01*
X143386781Y-106510587D01*
X143336657Y-106545677D01*
X143307721Y-106550000D01*
X142651245Y-106550000D01*
X142593054Y-106531093D01*
X142557090Y-106481593D01*
X142554147Y-106431685D01*
X142560500Y-106399748D01*
X142560500Y-105740252D01*
X142548867Y-105681769D01*
X142548866Y-105681768D01*
X142546965Y-105672207D01*
X142548191Y-105671963D01*
X142543567Y-105647767D01*
X142546751Y-105436044D01*
X142566530Y-105378148D01*
X142575720Y-105367549D01*
X142922160Y-105021111D01*
X142961722Y-104952588D01*
X142982200Y-104876162D01*
X142982200Y-104797038D01*
X142982200Y-104430438D01*
X142961721Y-104354011D01*
X142922160Y-104285489D01*
X142866211Y-104229540D01*
X142866208Y-104229538D01*
X142797692Y-104189980D01*
X142797688Y-104189978D01*
X142721264Y-104169500D01*
X142721262Y-104169500D01*
X142679500Y-104169500D01*
X142621309Y-104150593D01*
X142585345Y-104101093D01*
X142580500Y-104070500D01*
X142580500Y-103800256D01*
X142580500Y-103800252D01*
X142574039Y-103767772D01*
X142572150Y-103746997D01*
X142573077Y-103685374D01*
X142574968Y-103667559D01*
X142580499Y-103639755D01*
X142580500Y-103639746D01*
X142580500Y-103300254D01*
X142580023Y-103295409D01*
X142580347Y-103295377D01*
X142579140Y-103282132D01*
X142580000Y-103225000D01*
X142579999Y-103225000D01*
X142579999Y-103224998D01*
X142565606Y-103210388D01*
X142552387Y-103206093D01*
X142528263Y-103181002D01*
X142524553Y-103175450D01*
X142524552Y-103175448D01*
X142524548Y-103175445D01*
X142458233Y-103131134D01*
X142458231Y-103131133D01*
X142458228Y-103131132D01*
X142458227Y-103131132D01*
X142399758Y-103119501D01*
X142399748Y-103119500D01*
X142399747Y-103119500D01*
X141077800Y-103119500D01*
X141019609Y-103100593D01*
X140983645Y-103051093D01*
X140978800Y-103020500D01*
X140978800Y-102919500D01*
X140997707Y-102861309D01*
X141047207Y-102825345D01*
X141077800Y-102820500D01*
X142399747Y-102820500D01*
X142399748Y-102820500D01*
X142458231Y-102808867D01*
X142504757Y-102777778D01*
X142521362Y-102766684D01*
X142576363Y-102750000D01*
X142580000Y-102750000D01*
X142583933Y-102368478D01*
X142603439Y-102310487D01*
X142653308Y-102275035D01*
X142682928Y-102270500D01*
X144217021Y-102270500D01*
X144275212Y-102289407D01*
G37*
G04 #@! TD.AperFunction*
G04 #@! TA.AperFunction,Conductor*
G36*
X145148691Y-99068907D02*
G01*
X145184655Y-99118407D01*
X145189500Y-99149000D01*
X145189500Y-99799748D01*
X145201133Y-99858231D01*
X145202624Y-99860462D01*
X145204052Y-99865278D01*
X145204865Y-99867240D01*
X145204659Y-99867325D01*
X145219299Y-99916684D01*
X145192136Y-102116887D01*
X145172512Y-102174840D01*
X145122572Y-102210190D01*
X145061391Y-102209435D01*
X145023141Y-102185669D01*
X144567010Y-101729539D01*
X144498492Y-101689980D01*
X144498488Y-101689978D01*
X144422064Y-101669500D01*
X144422062Y-101669500D01*
X142691165Y-101669500D01*
X142632974Y-101650593D01*
X142597010Y-101601093D01*
X142592170Y-101569479D01*
X142594131Y-101379268D01*
X142610810Y-101325288D01*
X142618867Y-101313231D01*
X142630500Y-101254748D01*
X142630500Y-100595252D01*
X142618867Y-100536769D01*
X142618863Y-100536764D01*
X142615135Y-100527760D01*
X142616655Y-100527130D01*
X142603376Y-100482526D01*
X142603990Y-100422978D01*
X142623498Y-100364985D01*
X142673366Y-100329534D01*
X142702985Y-100325000D01*
X144254999Y-100325000D01*
X144255000Y-100325000D01*
X144255000Y-99149000D01*
X144273907Y-99090809D01*
X144323407Y-99054845D01*
X144354000Y-99050000D01*
X145090500Y-99050000D01*
X145148691Y-99068907D01*
G37*
G04 #@! TD.AperFunction*
G04 #@! TD*
M02*
